<svg xmlns="http://www.w3.org/2000/svg" width="200" height="200" fill="none" viewBox="0 0 200 200"><rect width="200" height="200" fill="#FECB42"/><path fill="#FFEFC6" fill-rule="evenodd" d="M58.2648 82.8125H141.735C151.477 82.8125 159.375 90.7101 159.375 100.452C159.375 110.194 151.477 118.092 141.735 118.092H58.2648C48.5226 118.092 40.625 110.194 40.625 100.452C40.625 90.7101 48.5226 82.8125 58.2648 82.8125ZM58.2648 87.5C51.1114 87.5 45.3125 93.2989 45.3125 100.452C45.3125 107.606 51.1114 113.405 58.2648 113.405H141.735C148.889 113.405 154.688 107.606 154.688 100.452C154.688 93.2989 148.889 87.5 141.735 87.5H58.2648Z" clip-rule="evenodd"/><rect width="96.547" height="14.391" x="51.563" y="93.257" fill="#FFEFC6" rx="7.196"/><path fill="#CF7C3D" d="M51.5625 100.452C51.5625 96.4782 54.7841 93.2566 58.7582 93.2566H116.324V107.648H58.7582C54.7841 107.648 51.5625 104.426 51.5625 100.452Z"/></svg>