<svg xmlns="http://www.w3.org/2000/svg" viewBox="0 0 1502 965"><defs><linearGradient id="a" x1="22" x2="1462" y1="463" y2="463" gradientUnits="userSpaceOnUse"><stop offset="0" stop-color="#34495e"/><stop offset=".53" stop-color="#00bfa3"/><stop offset="1" stop-color="#00c1a5"/></linearGradient></defs><g style="isolation:isolate"><path fill="none" stroke="url(#a)" stroke-linecap="round" stroke-linejoin="round" stroke-width="20" d="M1452 54c-84 46-88 126-136 152-52 38-108-2-134 12-118 37-104 206-222 238-118 16-172-102-270-90S562 478 460 590c-80 76-146 26-220 52-128 58-96 168-208 230"/><rect width="474.85" height="579.3" x="127.57" y="30.44" fill="#fff" rx="40" ry="40"/><rect width="474.85" height="579.3" x="127.57" y="30.44" fill="none" stroke="#eaeaea" stroke-miterlimit="10" rx="40" ry="40"/><rect width="257.75" height="7.13" x="166.84" y="176.03" fill="#293347" opacity=".1" rx="3.57" ry="3.57"/><rect width="257.75" height="7.13" x="166.84" y="155.94" fill="#293347" opacity=".2" rx="3.57" ry="3.57"/><rect width="294.53" height="7.13" x="166.84" y="194.21" fill="#293347" opacity=".1" rx="3.57" ry="3.57"/><rect width="184.46" height="7.13" x="166.84" y="212.4" fill="#293347" opacity=".1" rx="2.82" ry="2.82"/><rect width="257.75" height="7.13" x="166.84" y="449.43" fill="#293347" opacity=".1" rx="3.57" ry="3.57"/><rect width="294.53" height="7.13" x="166.84" y="467.62" fill="#293347" opacity=".1" rx="3.57" ry="3.57"/><rect width="184.46" height="7.13" x="166.84" y="485.8" fill="#293347" opacity=".1" rx="3.57" ry="3.57"/><rect width="65.64" height="7.13" x="192.17" y="514.3" fill="#293347" opacity=".1" rx="3.3" ry="3.3"/><rect width="7.14" height="7.14" x="179.51" y="514.3" fill="#293347" opacity=".1" rx="3.38" ry="3.38"/><rect width="92.57" height="7.13" x="192.17" y="534.05" fill="#293347" opacity=".1" rx="3.57" ry="3.57"/><rect width="7.14" height="7.14" x="179.51" y="534.05" fill="#293347" opacity=".1" rx="3.38" ry="3.38"/><rect width="80.09" height="7.13" x="192.17" y="553.8" fill="#293347" opacity=".1" rx="3.57" ry="3.57"/><rect width="7.14" height="7.14" x="179.51" y="553.8" fill="#293347" opacity=".1" rx="3.38" ry="3.38"/><rect width="390.91" height="145.69" x="166.84" y="267.4" fill="#293347" opacity=".1" rx="5" ry="5"/><text fill="#293347" font-family="Prompt-Bold,Prompt" font-size="30" font-weight="700" opacity=".5" transform="translate(168.88 114.64)"><tspan letter-spacing="-.025em">C</tspan><tspan x="19.71" y="0">ontent</tspan></text><rect width="474.85" height="232.92" x="772.78" y="11.06" fill="#fff" rx="46.67" ry="46.67"/><rect width="474.85" height="232.92" x="772.78" y="11.06" fill="none" stroke="#eaeaea" stroke-miterlimit="10" rx="46.67" ry="46.67"/><path fill="#293347" d="M1187 100.79h-105.34v36H1187a18 18 0 1 0 0-36zM946.73 100.79h127.8v36h-127.8zM832.1 100.79h107.5v36H832.1a18 18 0 0 1-18-18 18 18 0 0 1 18-18z" opacity=".1"/><path fill="#293347" d="M939.6 100.79H832.1a18 18 0 0 0 0 36h107.5z" opacity=".1"/><rect width="88.79" height="7.13" x="833.7" y="115.22" fill="#fff" opacity=".5" rx="3.57" ry="3.57"/><rect width="88.79" height="7.13" x="965.16" y="115.22" fill="#fff" opacity=".5" rx="3.57" ry="3.57"/><rect width="88.79" height="7.13" x="1097.62" y="115.22" fill="#fff" opacity=".5" rx="3.57" ry="3.57"/><rect width="257.75" height="7.13" x="812.05" y="156.65" fill="#293347" opacity=".1" rx="3.57" ry="3.57"/><rect width="294.53" height="7.13" x="812.05" y="174.84" fill="#293347" opacity=".1" rx="3.57" ry="3.57"/><rect width="184.46" height="7.13" x="812.05" y="193.03" fill="#293347" opacity=".1" rx="2.82" ry="2.82"/><text fill="#293347" font-family="Prompt-Bold,Prompt" font-size="30" font-weight="700" opacity=".5" transform="translate(814.1 73.26)"><tspan letter-spacing="-.115em">T</tspan><tspan x="14.31" y="0">a</tspan><tspan x="32.1" y="0" letter-spacing="-.015em">b</tspan><tspan x="51.6" y="0">s</tspan></text><rect width="474.85" height="171.09" x="967.59" y="377.46" fill="#fff" rx="40" ry="40"/><rect width="474.85" height="171.09" x="967.59" y="377.46" fill="none" stroke="#eaeaea" stroke-miterlimit="10" rx="40" ry="40"/><path fill="#293347" d="M1147.36 469.21h115a2 2 0 0 1 2 2v31a3 3 0 0 1-3 3h-114a3 3 0 0 1-3-3v-30a3 3 0 0 1 3-3z" opacity=".09"/><path fill="#fff" d="M1163 483.64h83.79a2 2 0 0 1 2 2v2.13a3 3 0 0 1-3 3H1163a3 3 0 0 1-3-3v-1.13a3 3 0 0 1 3-3z" opacity=".5"/><path fill="#293347" d="M1282.82 469.21h115a2 2 0 0 1 2 2v31a3 3 0 0 1-3 3h-114a3 3 0 0 1-3-3v-30a3 3 0 0 1 3-3z" opacity=".09"/><path fill="#fff" d="M1298.43 483.64h83.79a2 2 0 0 1 2 2v2.13a3 3 0 0 1-3 3h-82.79a3 3 0 0 1-3-3v-1.13a3 3 0 0 1 3-3z" opacity=".5"/><rect width="120" height="36" x="1008.91" y="469.21" fill="#293347" opacity=".1" rx="3" ry="3"/><rect width="88.79" height="7.13" x="1024.51" y="483.64" fill="#fff" opacity=".5" rx="3.57" ry="3.57"/><text fill="#293347" font-family="Prompt-Bold,Prompt" font-size="30" font-weight="700" opacity=".5" transform="translate(1008.91 440.53)">Bu<tspan x="38.52" y="0" letter-spacing="-.025em">t</tspan><tspan x="49.35" y="0" letter-spacing="-.005em">t</tspan><tspan x="60.78" y="0">ons</tspan></text><rect width="474.85" height="211.32" x="654.06" y="623.93" fill="#fff" rx="44.46" ry="44.46"/><rect width="474.85" height="211.32" x="654.06" y="623.93" fill="none" stroke="#eaeaea" stroke-miterlimit="10" rx="44.46" ry="44.46"/><rect width="80" height="80" x="695.21" y="716.96" fill="#293347" opacity=".1" rx="3.65" ry="3.65"/><text fill="#293347" font-family="Prompt-Bold,Prompt" font-size="30" font-weight="700" opacity=".5" transform="translate(695.54 688.62)">Media</text><rect width="236.33" height="7.13" x="797.28" y="766.86" fill="#293347" opacity=".1" rx="3.42" ry="3.42"/><rect width="285.75" height="7.13" x="797.28" y="746.77" fill="#293347" opacity=".1" rx="3.57" ry="3.57"/><rect width="101.68" height="7.13" x="797.28" y="726.02" fill="#293347" opacity=".2" rx="3.57" ry="3.57"/><rect width="7.13" height="7.14" x="797.61" y="785.56" fill="#293347" opacity=".1" rx="3.38" ry="3.38"/><rect width="7.13" height="7.14" x="812.36" y="785.56" fill="#293347" opacity=".1" rx="3.38" ry="3.38"/><rect width="7.13" height="7.14" x="826.98" y="785.56" fill="#293347" opacity=".1" rx="3.38" ry="3.38"/></g></svg>