<svg xmlns="http://www.w3.org/2000/svg" xmlns:xlink="http://www.w3.org/1999/xlink" id="Layer_1" x="0" y="0" version="1.1" viewBox="0 0 24 24" xml:space="preserve" style="enable-background:new 0 0 24 24"><style type="text/css">.st0{fill:#fff}</style><g><path d="M21,19.5H3c-1.4,0-2.5-1.1-2.5-2.5V6c0-1.4,1.1-2.5,2.5-2.5h18c1.4,0,2.5,1.1,2.5,2.5v11 C23.5,18.4,22.4,19.5,21,19.5z M2.5,6.7V17c0,0.3,0.2,0.5,0.5,0.5h18c0.3,0,0.5-0.2,0.5-0.5V6.7l-8.9,7.1c-0.4,0.3-0.9,0.3-1.2,0 L2.5,6.7z M4.2,5.5l7.8,6.2l7.8-6.2H4.2z" class="st0"/></g></svg>