<svg xmlns="http://www.w3.org/2000/svg" xmlns:xlink="http://www.w3.org/1999/xlink" id="Layer_1" x="0" y="0" version="1.1" viewBox="0 0 80 80" xml:space="preserve" style="enable-background:new 0 0 80 80"><style type="text/css">.st0{fill:#4285f4}.st1{fill:#34a853}.st2{fill:#fbbc05}.st3{fill:#ea4335}.st4{fill:none}</style><title>btn_google_light_normal_ios</title><desc>Created with Sketch.</desc><g id="Google-Button"><g id="btn_google_light_normal" transform="translate(-1.000000, -1.000000)"><g id="logo_googleg_48dp" transform="translate(15.000000, 15.000000)"><path id="Shape" d="M64.4,26.9c0-2.8-0.3-5.6-0.7-8.2H26v15.5h21.5 c-0.9,5-3.7,9.2-8,12.1v10h12.9C60,49.3,64.4,39.1,64.4,26.9L64.4,26.9z" class="st0"/><path id="Shape_1_" d="M26,66c10.8,0,19.9-3.6,26.5-9.7l-12.9-10 c-3.6,2.4-8.2,3.8-13.5,3.8c-10.4,0-19.2-7-22.4-16.5H-9.7V44C-3.2,57,10.4,66,26,66L26,66z" class="st1"/><path id="Shape_2_" d="M3.6,33.6c-0.8-2.4-1.3-5-1.3-7.6s0.5-5.2,1.3-7.6V8H-9.7 c-2.7,5.4-4.3,11.5-4.3,18s1.5,12.6,4.3,18L3.6,33.6L3.6,33.6z" class="st2"/><path id="Shape_3_" d="M26,1.9c5.9,0,11.1,2,15.3,6L52.8-3.6C45.8-10,36.8-14,26-14 C10.4-14-3.2-5-9.7,8L3.6,18.4C6.8,8.9,15.6,1.9,26,1.9L26,1.9z" class="st3"/><path id="Shape_4_" d="M-14-14h80v80h-80V-14z" class="st4"/></g></g></g></svg>